HIERARCHY
ROOT Hips
{
	OFFSET -13.091600 -28.302996 44.698402
	CHANNELS 6 Xposition Yposition Zposition Zrotation Xrotation Yrotation
	JOINT Chest
	{
		OFFSET -0.673000 0.623899 5.369202
		CHANNELS 6 Xposition Yposition Zposition Zrotation Xrotation Yrotation
		JOINT Chest2
		{
			OFFSET 0.000000 0.000000 4.415001
			CHANNELS 6 Xposition Yposition Zposition Zrotation Xrotation Yrotation
			JOINT Neck
			{
				OFFSET 0.000000 0.000002 10.273300
				CHANNELS 6 Xposition Yposition Zposition Zrotation Xrotation Yrotation
				JOINT Head
				{
					OFFSET 0.000000 0.000000 2.173897
					CHANNELS 6 Xposition Yposition Zposition Zrotation Xrotation Yrotation
					End Site
					{
						OFFSET 0.000000 0.000000 9.961800
					}
				}
			}
			JOINT LeftCollar
			{
				OFFSET 2.359900 -0.565201 5.928101
				CHANNELS 6 Xposition Yposition Zposition Zrotation Xrotation Yrotation
				JOINT LeftShoulder
				{
					OFFSET 5.443700 0.000000 0.000000
					CHANNELS 6 Xposition Yposition Zposition Zrotation Xrotation Yrotation
					JOINT LeftElbow
					{
						OFFSET 0.000000 0.000000 -10.615799
						CHANNELS 6 Xposition Yposition Zposition Zrotation Xrotation Yrotation
						JOINT LeftWrist
						{
							OFFSET 0.000000 -0.000002 -13.110302
							CHANNELS 6 Xposition Yposition Zposition Zrotation Xrotation Yrotation
							End Site
							{
								OFFSET 0.000000 0.000000 -2.173901
							}
						}
					}
				}
			}
			JOINT RightCollar
			{
				OFFSET -2.636600 -1.718800 6.889698
				CHANNELS 6 Xposition Yposition Zposition Zrotation Xrotation Yrotation
				JOINT RightShoulder
				{
					OFFSET -4.139101 0.000000 0.000000
					CHANNELS 6 Xposition Yposition Zposition Zrotation Xrotation Yrotation
					JOINT RightElbow
					{
						OFFSET 0.000000 0.000000 -10.471802
						CHANNELS 6 Xposition Yposition Zposition Zrotation Xrotation Yrotation
						JOINT RightWrist
						{
							OFFSET 0.000000 0.000000 -12.281898
							CHANNELS 6 Xposition Yposition Zposition Zrotation Xrotation Yrotation
							End Site
							{
								OFFSET 0.000000 -0.000002 -2.173901
							}
						}
					}
				}
			}
		}
	}
	JOINT LeftHip
	{
		OFFSET 2.273400 0.176701 -2.518002
		CHANNELS 6 Xposition Yposition Zposition Zrotation Xrotation Yrotation
		JOINT LeftKnee
		{
			OFFSET 0.000000 -0.000002 -20.456402
			CHANNELS 6 Xposition Yposition Zposition Zrotation Xrotation Yrotation
			JOINT LeftAnkle
			{
				OFFSET 0.000000 -0.000002 -16.635300
				CHANNELS 6 Xposition Yposition Zposition Zrotation Xrotation Yrotation
				End Site
				{
					OFFSET 0.000000 -8.812399 0.000001
				}
			}
		}
	}
	JOINT RightHip
	{
		OFFSET -1.914800 0.018101 -2.699299
		CHANNELS 6 Xposition Yposition Zposition Zrotation Xrotation Yrotation
		JOINT RightKnee
		{
			OFFSET 0.000000 -0.000002 -20.148901
			CHANNELS 6 Xposition Yposition Zposition Zrotation Xrotation Yrotation
			JOINT RightAnkle
			{
				OFFSET 0.000000 -0.000002 -16.838301
				CHANNELS 6 Xposition Yposition Zposition Zrotation Xrotation Yrotation
				End Site
				{
					OFFSET 0.000000 -8.328398 0.000001
				}
			}
		}
	}
}
MOTION
Frames: 7
Frame Time: 0.041667
-37.057701 18.039412 41.945507 2223.955711 21.211839 0.048303 -0.672999 0.623897 5.369208 3.426621 24.473766 -6.808105 0.000002 0.000001 4.415005 -1.287438 -5.621579 -0.702976 -0.000001 0.000001 10.273310 -8.992666 15.900607 -2.169471 -0.000002 -0.000005 2.173898 1.097413 -0.956927 0.159338 2.359899 -0.565199 5.928093 4.782394 3.359453 -13.146848 5.443696 0.000002 0.000001 -18.283778 64.315465 -86.044148 -0.000004 0.000008 -10.615796 875.051489 -184.934366 182.583920 0.000003 -0.000009 -13.110299 -1410.252982 6.987729 19.315048 -2.636605 -1.718801 6.889708 172.015309 -177.234379 161.872505 -4.139092 -0.000008 0.000001 358.034719 -337.276544 461.337587 -0.000004 -0.000000 -10.471800 -21.957731 -0.852842 -361.195840 -0.000003 -0.000010 -12.281894 337.092976 21.799416 28.600664 2.273405 0.176701 -2.517999 -111.349780 -136.504309 -136.388072 0.000005 -0.000005 -20.456396 53.063972 146.051929 -88.906544 -0.000005 -0.000005 -16.635303 54.355759 2.788544 30.395588 -1.914795 0.018102 -2.699295 95.946358 214.700863 121.527234 0.000004 -0.000006 -20.148901 -84.540871 -240.120054 136.036017 -0.000001 -0.000012 -16.838301 342.605021 14.193661 -3.608198
-36.255600 17.612413 41.907909 2223.773209 19.704734 0.845196 -0.673002 0.623901 5.369206 4.647431 24.427871 -7.599454 0.000003 -0.000003 4.415012 -1.131799 -5.746020 -0.707133 -0.000001 -0.000000 10.273300 -9.851924 16.807704 -1.665225 -0.000002 0.000003 2.173903 1.062452 -0.554960 -0.041112 2.359898 -0.565199 5.928097 5.251864 3.882509 -13.219176 5.443698 -0.000008 -0.000006 -16.284115 60.542619 -90.180791 0.000003 0.000000 -10.615793 874.269186 -185.430019 182.473981 -0.000002 -0.000002 -13.110307 -1412.722013 6.552059 18.541254 -2.636601 -1.718804 6.889700 173.525874 -177.339359 161.164133 -4.139096 -0.000010 -0.000006 357.039478 -335.090474 461.214534 -0.000001 -0.000002 -10.471799 -23.369076 -0.788849 -361.486123 -0.000001 0.000001 -12.281900 334.717983 22.566031 29.667200 2.273396 0.176708 -2.518001 -108.267637 -135.378161 -133.218059 0.000000 -0.000001 -20.456398 54.851128 144.971790 -93.146828 -0.000005 -0.000007 -16.635298 53.119365 1.769484 29.783655 -1.914796 0.018111 -2.699295 97.878318 214.130474 124.215705 0.000009 -0.000003 -20.148895 -77.682788 -238.976189 129.581174 0.000002 -0.000005 -16.838301 339.339945 11.862592 -4.588527
-35.426102 17.193308 41.844006 2223.444485 17.956438 1.544358 -0.673004 0.623898 5.369211 5.920724 24.505407 -8.295242 0.000001 -0.000002 4.415002 -1.034206 -5.845050 -0.708765 -0.000000 0.000001 10.273306 -10.652061 17.756923 -1.105133 -0.000005 -0.000000 2.173896 1.030065 -0.156948 -0.234817 2.359897 -0.565202 5.928098 5.707618 4.516298 -13.212189 5.443696 -0.000005 -0.000012 -15.520025 55.966509 -93.460757 -0.000003 -0.000008 -10.615794 873.678347 -185.947583 182.528322 0.000004 -0.000011 -13.110298 -1416.456323 5.923381 18.354680 -2.636603 -1.718803 6.889703 175.347990 -179.124621 159.717936 -4.139099 -0.000007 -0.000009 356.272912 -334.848248 461.571671 0.000000 -0.000006 -10.471804 -24.600830 -0.767160 -361.740779 0.000002 -0.000006 -12.281898 332.793372 23.347197 30.636305 2.273396 0.176710 -2.518000 -105.391909 -134.918024 -130.737156 0.000001 -0.000005 -20.456398 57.510985 143.169795 -98.569151 -0.000006 -0.000005 -16.635300 50.756526 1.760430 28.728462 -1.914802 0.018106 -2.699293 100.438601 213.818553 127.437670 0.000007 -0.000001 -20.148899 -72.373982 -237.594742 124.139330 -0.000002 -0.000003 -16.838303 336.298653 9.649310 -5.608014
-34.571503 16.784513 41.768204 2223.004293 16.127368 2.268600 -0.673001 0.623892 5.369209 7.401057 24.529226 -9.113950 -0.000001 -0.000001 4.415007 -1.108087 -5.902118 -0.706492 -0.000000 -0.000013 10.273307 -11.382252 18.709191 -0.481709 -0.000002 0.000009 2.173890 1.001085 0.190164 -0.438987 2.359898 -0.565215 5.928099 6.263661 5.231779 -13.127008 5.443695 -0.000002 -0.000003 -15.874784 50.374530 -96.065934 0.000000 -0.000000 -10.615790 872.852823 -186.391792 182.712055 -0.000000 0.000001 -13.110298 -1419.923000 5.288096 17.931974 -2.636606 -1.718814 6.889703 176.844581 -180.710946 159.757892 -4.139098 -0.000005 -0.000008 356.632235 -334.537174 460.037665 0.000000 -0.000004 -10.471797 -25.635554 -0.892336 -361.955247 0.000000 -0.000001 -12.281897 331.466622 24.236525 31.451717 2.273400 0.176702 -2.518001 -102.680098 -134.957448 -128.857871 0.000003 -0.000005 -20.456398 61.349265 140.525145 -105.210403 -0.000006 -0.000008 -16.635300 46.990950 2.819438 27.262381 -1.914798 0.018103 -2.699297 103.688931 213.649752 131.098023 0.000004 -0.000005 -20.148903 -69.023911 -236.238048 120.031832 0.000002 -0.000003 -16.838301 333.674931 7.594358 -6.683313
-33.677399 16.391310 41.699909 2222.395587 14.349239 3.011386 -0.673002 0.623891 5.369214 9.075958 24.374727 -10.044048 -0.000001 -0.000002 4.415013 -1.347542 -5.926824 -0.700493 -0.000004 0.000001 10.273296 -11.986297 19.636355 0.226888 -0.000003 -0.000002 2.173898 0.952530 0.487229 -0.635763 2.359899 -0.565205 5.928096 5.026730 2.872661 -12.652761 5.443698 -0.000004 -0.000002 -16.926114 47.459347 -96.990284 0.000000 0.000000 -10.615796 871.906105 -186.607913 183.015151 0.000001 0.000000 -13.110296 -1423.979585 4.359032 17.206638 -2.636600 -1.718805 6.889703 178.537429 -182.031044 159.146153 -4.139101 -0.000001 -0.000006 356.785778 -334.263338 459.128376 -0.000005 -0.000003 -10.471804 -26.757379 -0.894329 -362.204522 0.000002 -0.000001 -12.281892 330.425100 24.719201 32.380855 2.273401 0.176703 -2.517996 -100.691919 -135.105062 -127.935399 0.000005 -0.000005 -20.456396 68.211494 136.612963 -113.915200 -0.000002 -0.000004 -16.635298 41.247236 5.959835 24.615659 -1.914797 0.018101 -2.699294 107.242207 213.338063 134.896496 0.000000 -0.000002 -20.148901 -67.819639 -235.489514 117.658533 0.000002 -0.000004 -16.838297 332.041478 6.000987 -7.391642
-32.741600 16.020811 41.653103 2221.642627 12.418467 3.664056 -0.673001 0.623891 5.369204 10.911387 24.285791 -11.017664 -0.000001 -0.000004 4.415003 -1.747444 -5.993053 -0.700876 -0.000003 0.000003 10.273302 -12.473496 20.593304 1.021339 -0.000002 0.000000 2.173901 0.874029 0.751963 -0.786592 2.359899 -0.565196 5.928099 5.291173 3.062277 -12.160742 5.443694 0.000001 -0.000005 -18.414168 41.652157 -98.741285 -0.000002 -0.000006 -10.615796 870.755901 -186.637924 183.327222 -0.000001 0.000002 -13.110295 -1428.102616 3.671298 16.145073 -2.636600 -1.718798 6.889698 180.197370 -183.168175 158.615898 -4.139102 -0.000011 -0.000014 357.171984 -333.822190 458.002324 -0.000000 -0.000003 -10.471802 -28.403255 -0.865601 -362.417159 0.000000 -0.000001 -12.281899 330.179022 25.116853 33.045784 2.273396 0.176705 -2.518003 -99.614641 -135.422407 -128.169196 0.000002 -0.000005 -20.456394 80.229670 131.621953 -126.149550 -0.000005 -0.000004 -16.635300 32.875821 11.025106 21.058988 -1.914801 0.018103 -2.699302 111.254615 212.863911 139.128276 0.000001 -0.000003 -20.148901 -68.736080 -235.557051 117.061861 0.000002 -0.000006 -16.838297 331.496319 4.902646 -7.592186
-31.759102 15.677816 41.641609 2220.810764 10.341653 4.045364 -0.673001 0.623897 5.369215 12.656519 24.313790 -11.837029 -0.000000 0.000004 4.415009 -2.235978 -5.907380 -0.684740 -0.000004 0.000000 10.273302 -12.790599 21.431307 1.838551 -0.000004 -0.000003 2.173902 0.495729 0.836163 -0.497499 2.359899 -0.565201 5.928100 5.595878 3.081786 -11.541167 5.443698 -0.000005 0.000002 -20.319311 35.771801 -100.222576 -0.000003 -0.000002 -10.615790 869.374017 -186.412323 183.600703 -0.000005 0.000005 -13.110292 -1432.512076 3.138091 14.891810 -2.636604 -1.718804 6.889702 182.616801 -183.929864 158.294497 -4.139094 -0.000005 -0.000006 357.198704 -333.408963 456.406518 -0.000000 -0.000001 -10.471799 -30.061712 -0.838773 -362.605645 -0.000002 -0.000001 -12.281897 329.964526 25.470189 33.857432 2.273396 0.176704 -2.517999 -99.661688 -135.914180 -129.642140 0.000001 -0.000004 -20.456400 101.149808 127.329411 -144.719032 -0.000003 -0.000001 -16.635300 21.224302 18.174495 16.209711 -1.914796 0.018108 -2.699294 115.575707 212.242500 143.798650 0.000002 -0.000007 -20.148903 -71.527968 -236.359625 118.124174 -0.000002 -0.000006 -16.838299 331.945800 4.310397 -7.267565
